<svg width="50" height="50" viewBox="0 0 50 50" fill="none" xmlns="http://www.w3.org/2000/svg">
<path d="M20.9 30.982V29.092L26.444 24.151C26.876 23.767 27.176 23.404 27.344 23.062C27.512 22.72 27.596 22.39 27.596 22.072C27.596 21.64 27.503 21.256 27.317 20.92C27.131 20.578 26.873 20.308 26.543 20.11C26.219 19.912 25.844 19.813 25.418 19.813C24.968 19.813 24.569 19.918 24.221 20.128C23.879 20.332 23.612 20.605 23.42 20.947C23.228 21.289 23.138 21.658 23.15 22.054H20.918C20.918 21.19 21.11 20.437 21.494 19.795C21.884 19.153 22.418 18.655 23.096 18.301C23.78 17.947 24.569 17.77 25.463 17.77C26.291 17.77 27.035 17.956 27.695 18.328C28.355 18.694 28.874 19.204 29.252 19.858C29.63 20.506 29.819 21.253 29.819 22.099C29.819 22.717 29.735 23.236 29.567 23.656C29.399 24.076 29.147 24.463 28.811 24.817C28.481 25.171 28.07 25.564 27.578 25.996L23.645 29.479L23.447 28.939H29.819V30.982H20.9Z" fill="#FF4002"/>
<circle cx="25" cy="25" r="24.25" stroke="#FF4002" stroke-width="1.5"/>
</svg>
