<svg width="50" height="50" viewBox="0 0 50 50" fill="none" xmlns="http://www.w3.org/2000/svg">
<path d="M24.968 31.243C24.32 31.243 23.708 31.117 23.132 30.865C22.556 30.613 22.055 30.256 21.629 29.794C21.209 29.332 20.906 28.786 20.72 28.156L22.817 27.589C22.967 28.105 23.24 28.504 23.636 28.786C24.038 29.062 24.479 29.197 24.959 29.191C25.385 29.191 25.766 29.092 26.102 28.894C26.438 28.696 26.702 28.429 26.894 28.093C27.086 27.751 27.182 27.37 27.182 26.95C27.182 26.308 26.975 25.771 26.561 25.339C26.147 24.907 25.613 24.691 24.959 24.691C24.761 24.691 24.566 24.718 24.374 24.772C24.188 24.826 24.008 24.901 23.834 24.997L22.844 23.287L27.2 19.561L27.389 20.083H21.224V18.04H29.171V20.092L25.67 23.458L25.652 22.819C26.438 22.873 27.107 23.092 27.659 23.476C28.217 23.86 28.643 24.355 28.937 24.961C29.237 25.567 29.387 26.23 29.387 26.95C29.387 27.766 29.186 28.498 28.784 29.146C28.388 29.794 27.854 30.307 27.182 30.685C26.516 31.057 25.778 31.243 24.968 31.243Z" fill="#FF4002"/>
<circle cx="25" cy="25" r="24.25" stroke="#FF4002" stroke-width="1.5"/>
</svg>
