<svg width="108" height="30" viewBox="0 0 108 30" fill="none" xmlns="http://www.w3.org/2000/svg">
<g clip-path="url(#clip0_2560_374)">
<path d="M0 22.3759V7.6247H9.52683V9.93982H2.46878V13.5764H8.29756V15.8915H2.46878V20.0608H9.52683V22.3759H0Z" fill="#A8A8A8"/>
<path d="M18.3358 22.6832C17.1612 22.6832 16.1265 22.4442 15.2319 21.9662C14.3441 21.4881 13.6475 20.8154 13.1421 19.9481C12.6436 19.0808 12.3943 18.0632 12.3943 16.8954V7.64519L14.8938 7.6247V16.834C14.8938 17.3871 14.986 17.8823 15.1704 18.3193C15.3616 18.7564 15.6177 19.1286 15.9387 19.4359C16.2597 19.7364 16.6285 19.9652 17.0451 20.1223C17.4616 20.2793 17.8919 20.3579 18.3358 20.3579C18.7933 20.3579 19.227 20.2793 19.6368 20.1223C20.0533 19.9584 20.4221 19.7262 20.7431 19.4257C21.0641 19.1184 21.3168 18.7462 21.5012 18.3091C21.6855 17.872 21.7777 17.3803 21.7777 16.834V7.6247H24.2773V16.8954C24.2773 18.0632 24.0246 19.0808 23.5192 19.9481C23.0207 20.8154 22.3241 21.4881 21.4294 21.9662C20.5416 22.4442 19.5104 22.6832 18.3358 22.6832Z" fill="#A8A8A8"/>
<path d="M27.5497 22.3759V7.6247H33.6448C33.7882 7.6247 33.9726 7.63153 34.198 7.64519C34.4234 7.65202 34.6316 7.6725 34.8229 7.70665C35.6765 7.83641 36.3799 8.11982 36.9331 8.55689C37.4931 8.99397 37.9063 9.54714 38.1726 10.2164C38.4458 10.8788 38.5824 11.6164 38.5824 12.4291C38.5824 13.631 38.2785 14.6657 37.6707 15.533C37.0629 16.3935 36.1307 16.9262 34.8741 17.131L33.819 17.2232H30.0185V22.3759H27.5497ZM36.0214 22.3759L33.1121 16.373L35.6219 15.8198L38.818 22.3759H36.0214ZM30.0185 14.9184H33.5424C33.679 14.9184 33.8326 14.9115 34.0034 14.8979C34.1741 14.8842 34.3312 14.8569 34.4746 14.8159C34.8843 14.7135 35.2053 14.5325 35.4375 14.273C35.6765 14.0135 35.8438 13.7198 35.9395 13.392C36.0419 13.0642 36.0931 12.7432 36.0931 12.4291C36.0931 12.1149 36.0419 11.794 35.9395 11.4662C35.8438 11.1315 35.6765 10.8345 35.4375 10.5749C35.2053 10.3154 34.8843 10.1345 34.4746 10.032C34.3312 9.99104 34.1741 9.96714 34.0034 9.96031C33.8326 9.94665 33.679 9.93982 33.5424 9.93982H30.0185V14.9184Z" fill="#A8A8A8"/>
<path d="M47.7231 22.6832C46.248 22.6832 44.9846 22.3623 43.9329 21.7203C42.8812 21.0715 42.0719 20.1701 41.5051 19.0159C40.9451 17.8618 40.6651 16.5232 40.6651 15.0003C40.6651 13.4774 40.9451 12.1388 41.5051 10.9847C42.0719 9.83055 42.8812 8.9325 43.9329 8.29055C44.9846 7.64177 46.248 7.31738 47.7231 7.31738C49.1983 7.31738 50.4617 7.64177 51.5134 8.29055C52.5719 8.9325 53.3812 9.83055 53.9412 10.9847C54.508 12.1388 54.7914 13.4774 54.7914 15.0003C54.7914 16.5232 54.508 17.8618 53.9412 19.0159C53.3812 20.1701 52.5719 21.0715 51.5134 21.7203C50.4617 22.3623 49.1983 22.6832 47.7231 22.6832ZM47.7231 20.3579C48.7134 20.3647 49.5363 20.1462 50.1919 19.7023C50.8544 19.2584 51.3495 18.6335 51.6773 17.8276C52.0119 17.0218 52.1792 16.0793 52.1792 15.0003C52.1792 13.9213 52.0119 12.9857 51.6773 12.1935C51.3495 11.3945 50.8544 10.773 50.1919 10.3291C49.5363 9.88519 48.7134 9.65641 47.7231 9.64275C46.7329 9.63592 45.91 9.85445 45.2544 10.2984C44.5988 10.7423 44.1036 11.3671 43.769 12.173C43.4412 12.9788 43.2773 13.9213 43.2773 15.0003C43.2773 16.0793 43.4412 17.0184 43.769 17.8174C44.0968 18.6096 44.5885 19.2276 45.2441 19.6715C45.9066 20.1154 46.7329 20.3442 47.7231 20.3579Z" fill="#A8A8A8"/>
<path d="M63.4787 22.6832C62.0036 22.6832 60.7402 22.3623 59.6885 21.7203C58.6368 21.0715 57.8275 20.1701 57.2607 19.0159C56.7007 17.8618 56.4207 16.5232 56.4207 15.0003C56.4207 13.4774 56.7007 12.1388 57.2607 10.9847C57.8275 9.83055 58.6368 8.9325 59.6885 8.29055C60.7402 7.64177 62.0036 7.31738 63.4787 7.31738C64.9539 7.31738 66.2173 7.64177 67.269 8.29055C68.3275 8.9325 69.1368 9.83055 69.6968 10.9847C70.2636 12.1388 70.547 13.4774 70.547 15.0003C70.547 16.5232 70.2636 17.8618 69.6968 19.0159C69.1368 20.1701 68.3275 21.0715 67.269 21.7203C66.2173 22.3623 64.9539 22.6832 63.4787 22.6832ZM63.4787 20.3579C64.469 20.3647 65.2919 20.1462 65.9475 19.7023C66.61 19.2584 67.1051 18.6335 67.4329 17.8276C67.7675 17.0218 67.9348 16.0793 67.9348 15.0003C67.9348 13.9213 67.7675 12.9857 67.4329 12.1935C67.1051 11.3945 66.61 10.773 65.9475 10.3291C65.2919 9.88519 64.469 9.65641 63.4787 9.64275C62.4885 9.63592 61.6656 9.85445 61.01 10.2984C60.3544 10.7423 59.8592 11.3671 59.5246 12.173C59.1968 12.9788 59.0329 13.9213 59.0329 15.0003C59.0329 16.0793 59.1968 17.0184 59.5246 17.8174C59.8524 18.6096 60.3441 19.2276 60.9997 19.6715C61.6622 20.1154 62.4885 20.3442 63.4787 20.3579Z" fill="#A8A8A8"/>
<path d="M75.6946 22.3759L71.0439 7.6247H73.5844L77.477 19.9788L81.4209 7.6247H83.9614L79.3107 22.3759H75.6946Z" fill="#A8A8A8"/>
<path d="M85.9103 22.3759V7.6247H95.4372V9.93982H88.3791V13.5764H94.2079V15.8915H88.3791V20.0608H95.4372V22.3759H85.9103Z" fill="#A8A8A8"/>
<path d="M98.5095 22.3759V7.6247H100.978V20.0608H107.493V22.3759H98.5095Z" fill="#A8A8A8"/>
</g>
<defs>
<clipPath id="clip0_2560_374">
<rect width="107.561" height="30" fill="white" transform="translate(0 0.000366211)"/>
</clipPath>
</defs>
</svg>
