<svg width="131" height="36" viewBox="0 0 131 36" fill="none" xmlns="http://www.w3.org/2000/svg">
<rect width="131" height="36" rx="5" fill="#D5D5D5"/>
<path d="M33.2813 15.6761C33.2557 15.6233 33.2157 15.5788 33.166 15.5476C33.1162 15.5165 33.0587 15.5 33 15.5H29.7438L32.345 10.0087C32.3676 9.96103 32.3777 9.90847 32.3745 9.85586C32.3713 9.80324 32.3549 9.7523 32.3267 9.70776C32.2985 9.66323 32.2595 9.62655 32.2133 9.60115C32.1671 9.57575 32.1153 9.56246 32.0625 9.5625H27.0625C27.0023 9.56249 26.9433 9.57992 26.8927 9.61267C26.8421 9.64543 26.802 9.69212 26.7774 9.74713L22.7149 18.8096C22.6935 18.8572 22.6844 18.9094 22.6884 18.9614C22.6924 19.0134 22.7093 19.0636 22.7377 19.1074C22.7661 19.1511 22.8049 19.1871 22.8507 19.212C22.8966 19.237 22.9479 19.25 23 19.25H26.0498L24.5697 26.0585C24.5546 26.1276 24.5634 26.1997 24.5946 26.2632C24.6258 26.3266 24.6777 26.3776 24.7416 26.4078C24.8056 26.438 24.8779 26.4456 24.9467 26.4293C25.0155 26.4131 25.0768 26.374 25.1205 26.3185L33.2455 16.006C33.2818 15.9599 33.3044 15.9045 33.3107 15.8462C33.3171 15.7878 33.3069 15.7289 33.2813 15.6761Z" fill="#FF4002"/>
<path d="M43.12 22.5L46.09 18.126L43.198 13.86H44.5L46.738 17.226L48.97 13.86H50.278L47.386 18.126L50.35 22.5H49.048L46.738 19.032L44.428 22.5H43.12ZM56.8488 16.02V22.5H55.8168V17.724L52.4208 22.5H51.5388V16.02H52.5708V20.73L55.9728 16.02H56.8488ZM60.4852 22.5V16.992H58.2292V16.02H63.8092V16.992H61.5532V22.5H60.4852ZM67.8213 22.5V16.02H73.1313V22.5H72.0633V17.034H68.8893V22.5H67.8213ZM78.0277 22.68C77.4197 22.68 76.9077 22.53 76.4917 22.23C76.0757 21.926 75.7597 21.516 75.5437 21C75.3317 20.48 75.2257 19.898 75.2257 19.254C75.2257 18.602 75.3317 18.018 75.5437 17.502C75.7597 16.986 76.0757 16.58 76.4917 16.284C76.9117 15.988 77.4257 15.84 78.0337 15.84C78.6337 15.84 79.1497 15.99 79.5817 16.29C80.0177 16.586 80.3517 16.992 80.5837 17.508C80.8157 18.024 80.9317 18.606 80.9317 19.254C80.9317 19.902 80.8157 20.484 80.5837 21C80.3517 21.516 80.0177 21.926 79.5817 22.23C79.1497 22.53 78.6317 22.68 78.0277 22.68ZM75.0457 25.38V16.02H75.9997V20.79H76.1197V25.38H75.0457ZM77.8957 21.702C78.3237 21.702 78.6777 21.594 78.9577 21.378C79.2377 21.162 79.4477 20.87 79.5877 20.502C79.7277 20.13 79.7977 19.714 79.7977 19.254C79.7977 18.798 79.7277 18.386 79.5877 18.018C79.4517 17.65 79.2397 17.358 78.9517 17.142C78.6677 16.926 78.3057 16.818 77.8657 16.818C77.4457 16.818 77.0977 16.922 76.8217 17.13C76.5457 17.334 76.3397 17.62 76.2037 17.988C76.0677 18.352 75.9997 18.774 75.9997 19.254C75.9997 19.726 76.0657 20.148 76.1977 20.52C76.3337 20.888 76.5417 21.178 76.8217 21.39C77.1017 21.598 77.4597 21.702 77.8957 21.702ZM85.247 22.68C84.603 22.68 84.047 22.534 83.579 22.242C83.115 21.95 82.757 21.546 82.505 21.03C82.253 20.514 82.127 19.922 82.127 19.254C82.127 18.574 82.255 17.978 82.511 17.466C82.767 16.954 83.129 16.556 83.597 16.272C84.065 15.984 84.615 15.84 85.247 15.84C85.895 15.84 86.453 15.986 86.921 16.278C87.389 16.566 87.747 16.968 87.995 17.484C88.247 17.996 88.373 18.586 88.373 19.254C88.373 19.93 88.247 20.526 87.995 21.042C87.743 21.554 87.383 21.956 86.915 22.248C86.447 22.536 85.891 22.68 85.247 22.68ZM85.247 21.666C85.919 21.666 86.419 21.442 86.747 20.994C87.075 20.546 87.239 19.966 87.239 19.254C87.239 18.522 87.073 17.94 86.741 17.508C86.409 17.072 85.911 16.854 85.247 16.854C84.795 16.854 84.423 16.956 84.131 17.16C83.839 17.364 83.621 17.646 83.477 18.006C83.333 18.366 83.261 18.782 83.261 19.254C83.261 19.982 83.429 20.566 83.765 21.006C84.101 21.446 84.595 21.666 85.247 21.666ZM89.4541 23.94V21.618C89.8181 21.618 90.0781 21.5 90.2341 21.264C90.3901 21.024 90.5161 20.63 90.6121 20.082C90.6761 19.738 90.7281 19.37 90.7681 18.978C90.8081 18.586 90.8421 18.15 90.8701 17.67C90.9021 17.186 90.9321 16.636 90.9601 16.02H95.4241V21.618H96.0541V23.94H95.0341V22.5H90.4741V23.94H89.4541ZM91.0981 21.618H94.3561V16.902H91.9261C91.9141 17.186 91.8981 17.484 91.8781 17.796C91.8581 18.104 91.8341 18.412 91.8061 18.72C91.7821 19.028 91.7521 19.32 91.7161 19.596C91.6841 19.868 91.6461 20.112 91.6021 20.328C91.5501 20.628 91.4901 20.882 91.4221 21.09C91.3541 21.298 91.2461 21.474 91.0981 21.618ZM99.3403 22.68C98.8563 22.68 98.4503 22.592 98.1223 22.416C97.7983 22.236 97.5523 22 97.3843 21.708C97.2203 21.416 97.1383 21.096 97.1383 20.748C97.1383 20.408 97.2023 20.114 97.3303 19.866C97.4623 19.614 97.6463 19.406 97.8823 19.242C98.1183 19.074 98.4003 18.942 98.7283 18.846C99.0363 18.762 99.3803 18.69 99.7603 18.63C100.144 18.566 100.532 18.508 100.924 18.456C101.316 18.404 101.682 18.354 102.022 18.306L101.638 18.528C101.65 17.952 101.534 17.526 101.29 17.25C101.05 16.974 100.634 16.836 100.042 16.836C99.6503 16.836 99.3063 16.926 99.0103 17.106C98.7183 17.282 98.5123 17.57 98.3923 17.97L97.3783 17.664C97.5343 17.096 97.8363 16.65 98.2843 16.326C98.7323 16.002 99.3223 15.84 100.054 15.84C100.642 15.84 101.146 15.946 101.566 16.158C101.99 16.366 102.294 16.682 102.478 17.106C102.57 17.306 102.628 17.524 102.652 17.76C102.676 17.992 102.688 18.236 102.688 18.492V22.5H101.74V20.946L101.962 21.09C101.718 21.614 101.376 22.01 100.936 22.278C100.5 22.546 99.9683 22.68 99.3403 22.68ZM99.5023 21.786C99.8863 21.786 100.218 21.718 100.498 21.582C100.782 21.442 101.01 21.26 101.182 21.036C101.354 20.808 101.466 20.56 101.518 20.292C101.578 20.092 101.61 19.87 101.614 19.626C101.622 19.378 101.626 19.188 101.626 19.056L101.998 19.218C101.65 19.266 101.308 19.312 100.972 19.356C100.636 19.4 100.318 19.448 100.018 19.5C99.7183 19.548 99.4483 19.606 99.2083 19.674C99.0323 19.73 98.8663 19.802 98.7103 19.89C98.5583 19.978 98.4343 20.092 98.3383 20.232C98.2463 20.368 98.2003 20.538 98.2003 20.742C98.2003 20.918 98.2443 21.086 98.3323 21.246C98.4243 21.406 98.5643 21.536 98.7523 21.636C98.9443 21.736 99.1943 21.786 99.5023 21.786ZM103.768 22.5L106.384 19.26L103.894 16.02H105.082L107.488 19.2V16.02H108.46V19.2L110.866 16.02H112.054L109.564 19.26L112.18 22.5H110.938L108.46 19.32V22.5H107.488V19.32L105.01 22.5H103.768Z" fill="#2B2E35"/>
</svg>
