<svg width="75" height="75" viewBox="0 0 75 75" fill="none" xmlns="http://www.w3.org/2000/svg">
<rect width="75" height="75" rx="37.5" fill="#2B2E35"/>
<path d="M20 44.68V29.32H22.7508V44.68H20Z" fill="white"/>
<path d="M32.2535 45C31.0513 45 29.9669 44.8044 29.0005 44.4133C28.0418 44.0222 27.2504 43.464 26.6264 42.7387C26.01 42.0062 25.6182 41.1387 25.4508 40.136L28.3043 39.7307C28.5478 40.6409 29.0462 41.3449 29.7995 41.8427C30.5605 42.3404 31.4355 42.5893 32.4248 42.5893C33.0107 42.5893 33.5624 42.504 34.0798 42.3333C34.5972 42.1627 35.0158 41.9138 35.3353 41.5867C35.6626 41.2596 35.8262 40.8578 35.8262 40.3813C35.8262 40.168 35.7881 39.9724 35.712 39.7947C35.6359 39.6098 35.5218 39.4462 35.3696 39.304C35.225 39.1618 35.0348 39.0338 34.7989 38.92C34.5706 38.7991 34.3043 38.696 33.9999 38.6107L29.7539 37.4373C29.3886 37.3378 28.9929 37.2062 28.5668 37.0427C28.1483 36.872 27.7488 36.6409 27.3683 36.3493C26.9955 36.0507 26.6873 35.6738 26.4438 35.2187C26.2079 34.7564 26.0899 34.1876 26.0899 33.512C26.0899 32.5236 26.3563 31.6951 26.8889 31.0267C27.4292 30.3511 28.1521 29.8462 29.0576 29.512C29.9707 29.1778 30.9828 29.0142 32.0938 29.0213C33.2199 29.0284 34.2244 29.2098 35.1071 29.5653C35.9898 29.9138 36.7279 30.4222 37.3214 31.0907C37.9149 31.7591 38.3334 32.5662 38.5769 33.512L35.6207 33.992C35.499 33.4516 35.2631 32.9929 34.913 32.616C34.5706 32.232 34.1483 31.9404 33.6461 31.7413C33.1515 31.5422 32.6226 31.4356 32.0595 31.4213C31.5116 31.4142 31.0018 31.4924 30.53 31.656C30.0658 31.8124 29.6892 32.04 29.4 32.3387C29.1185 32.6373 28.9777 32.9858 28.9777 33.384C28.9777 33.7609 29.0995 34.0702 29.343 34.312C29.5865 34.5467 29.887 34.7351 30.2447 34.8773C30.6099 35.0124 30.979 35.1262 31.3518 35.2187L34.2967 35.9867C34.7 36.0862 35.1527 36.2213 35.6549 36.392C36.1572 36.5627 36.6404 36.8009 37.1045 37.1067C37.5687 37.4124 37.9492 37.8142 38.2459 38.312C38.5503 38.8098 38.7025 39.4427 38.7025 40.2107C38.7025 41.0071 38.5237 41.7076 38.166 42.312C37.816 42.9093 37.3404 43.4071 36.7393 43.8053C36.1381 44.2036 35.4495 44.5022 34.6733 44.7013C33.9048 44.9004 33.0982 45 32.2535 45Z" fill="white"/>
<path d="M48.1243 45C46.4807 45 45.0729 44.6658 43.9011 43.9973C42.7292 43.3218 41.8275 42.3831 41.1959 41.1813C40.572 39.9796 40.26 38.5858 40.26 37C40.26 35.4142 40.572 34.0204 41.1959 32.8187C41.8275 31.6169 42.7292 30.6818 43.9011 30.0133C45.0729 29.3378 46.4807 29 48.1243 29C49.7679 29 51.1756 29.3378 52.3475 30.0133C53.527 30.6818 54.4287 31.6169 55.0526 32.8187C55.6842 34.0204 56 35.4142 56 37C56 38.5858 55.6842 39.9796 55.0526 41.1813C54.4287 42.3831 53.527 43.3218 52.3475 43.9973C51.1756 44.6658 49.7679 45 48.1243 45ZM48.1243 42.5787C49.2276 42.5858 50.1446 42.3582 50.8751 41.896C51.6132 41.4338 52.1649 40.7831 52.5301 39.944C52.903 39.1049 53.0894 38.1236 53.0894 37C53.0894 35.8764 52.903 34.9022 52.5301 34.0773C52.1649 33.2453 51.6132 32.5982 50.8751 32.136C50.1446 31.6738 49.2276 31.4356 48.1243 31.4213C47.0209 31.4142 46.104 31.6418 45.3735 32.104C44.643 32.5662 44.0913 33.2169 43.7185 34.056C43.3532 34.8951 43.1706 35.8764 43.1706 37C43.1706 38.1236 43.3532 39.1013 43.7185 39.9333C44.0837 40.7582 44.6316 41.4018 45.3621 41.864C46.1002 42.3262 47.0209 42.5644 48.1243 42.5787Z" fill="white"/>
</svg>
