<svg width="57" height="37" viewBox="0 0 57 37" fill="none" xmlns="http://www.w3.org/2000/svg">
<g clip-path="url(#clip0_2650_322)">
<path d="M0 -0.500244H57V37.5002H0V-0.500244Z" fill="#0052B4"/>
<path d="M28.5 7.81189L29.0686 9.56141H30.908L29.4198 10.6427L29.9882 12.3923L28.5 11.311L27.0118 12.3923L27.5802 10.6427L26.092 9.56141H27.9314L28.5 7.81189ZM20.9428 10.9422L22.5819 11.7773L23.8827 10.4766L23.5948 12.2935L25.2339 13.1287L23.417 13.4165L23.1292 15.2335L22.294 13.5944L20.4773 13.8821L21.778 12.5813L20.9428 10.9422ZM17.8125 18.4994L19.562 17.9309L19.5621 16.0915L20.6432 17.5797L22.3929 17.0113L21.3115 18.4994L22.3929 19.9876L20.6432 19.4193L19.5621 20.9074V19.0679L17.8125 18.4994ZM20.9428 26.0567L21.7778 24.4175L20.4773 23.1168L22.2942 23.4046L23.1292 21.7655L23.417 23.5825L25.2339 23.8702L23.5949 24.7054L23.8827 26.5221L22.5819 25.2215L20.9428 26.0567ZM28.5 29.1869L27.9314 27.4374H26.092L27.5803 26.3561L27.0118 24.6066L28.5 25.6878L29.9882 24.6066L29.4198 26.3561L30.908 27.4374H29.0684L28.5 29.1869ZM36.0572 26.0567L34.4181 25.2216L33.1173 26.5224L33.4052 24.7053L31.7661 23.8702L33.5829 23.5825L33.8708 21.7655L34.706 23.4046L36.5227 23.1168L35.222 24.4176L36.0572 26.0567ZM39.1875 18.4994L37.438 19.0679V20.9074L36.3568 19.4191L34.6071 19.9876L35.6885 18.4994L34.6071 17.0113L36.3568 17.5796L37.4379 16.0915L37.438 17.9311L39.1875 18.4994ZM36.0572 10.9422L35.2221 12.5813L36.5229 13.8821L34.7058 13.5942L33.8708 15.2334L33.5829 13.4165L31.7661 13.1287L33.4052 12.2935L33.1173 10.4766L34.4181 11.7774L36.0572 10.9422Z" fill="#FFDA44"/>
</g>
<defs>
<clipPath id="clip0_2650_322">
<rect width="57" height="37" rx="6" fill="white"/>
</clipPath>
</defs>
</svg>
