<svg width="86" height="76" viewBox="0 0 86 76" fill="none" xmlns="http://www.w3.org/2000/svg">
<rect x="0.5" y="0.5" width="75" height="75" rx="37.5" fill="#2B2E35"/>
<g clip-path="url(#clip0_2294_348)">
<path d="M24.125 58.4955C24.2908 58.4955 24.4497 58.4296 24.5669 58.3124C24.6842 58.1952 24.75 58.0362 24.75 57.8705V50.9667C24.75 49.6005 25.4787 48.313 26.6512 47.6105L31.5438 44.6742L34.2288 48.0305C34.2838 48.099 34.3526 48.1553 34.4308 48.1956C34.509 48.2358 34.5947 48.2592 34.6825 48.2642L34.7175 48.2655C34.8825 48.2655 35.0425 48.2005 35.16 48.083L36.3625 46.8805V47.6417C36.3625 47.8075 36.4283 47.9664 36.5456 48.0837C36.6628 48.2009 36.8217 48.2667 36.9875 48.2667H37.0462L36.0037 57.8042C35.9934 57.8866 35.9995 57.9701 36.0217 58.0501C36.044 58.13 36.0819 58.2047 36.1334 58.2699C36.1848 58.335 36.2487 58.3892 36.3213 58.4294C36.3939 58.4696 36.4738 58.4949 36.5563 58.5038C36.6388 58.5128 36.7223 58.5052 36.8018 58.4816C36.8814 58.458 36.9554 58.4187 37.0197 58.3662C37.0839 58.3136 37.137 58.2488 37.1759 58.1755C37.2148 58.1022 37.2387 58.0219 37.2463 57.9392L38.3038 48.2667H38.6962L39.7537 57.9392C39.7717 58.1041 39.8543 58.2552 39.9836 58.3592C40.1129 58.4631 40.2782 58.5115 40.4431 58.4936C40.6081 58.4757 40.7591 58.393 40.8631 58.2637C40.9671 58.1344 41.0154 57.9692 40.9975 57.8042L39.955 48.2667H40.0138C40.1795 48.2667 40.3385 48.2009 40.4557 48.0837C40.5729 47.9664 40.6388 47.8075 40.6388 47.6417V46.8805L41.8413 48.083C41.8994 48.141 41.9684 48.1869 42.0443 48.2183C42.1203 48.2496 42.2016 48.2656 42.2838 48.2655L42.3188 48.2642C42.4065 48.2592 42.4923 48.2358 42.5705 48.1956C42.6486 48.1553 42.7175 48.099 42.7725 48.0305L45.4575 44.6742L50.3513 47.6105C50.929 47.9601 51.4071 48.4525 51.7396 49.0402C52.0721 49.628 52.2479 50.2914 52.25 50.9667V57.8705C52.25 58.0362 52.3158 58.1952 52.4331 58.3124C52.5503 58.4296 52.7092 58.4955 52.875 58.4955C53.0408 58.4955 53.1997 58.4296 53.3169 58.3124C53.4342 58.1952 53.5 58.0362 53.5 57.8705V50.9667C53.5 49.163 52.5387 47.4667 50.9925 46.5392L45.71 43.3705L43.73 41.1705C43.6476 41.0824 43.5409 41.0207 43.4235 40.9931C43.306 40.9655 43.183 40.9733 43.07 41.0155V38.5605C43.9795 37.8623 44.7164 36.9645 45.2237 35.9363C45.7311 34.9081 45.9954 33.777 45.9963 32.6305V29.7905L47.2025 24.208C47.2935 23.7144 47.2848 23.2076 47.1768 22.7175C47.0688 22.2273 46.8638 21.7638 46.5737 21.3542C46.2862 20.9428 45.9191 20.5932 45.4943 20.3259C45.0694 20.0586 44.5953 19.8791 44.1 19.798L36.6525 18.5567C36.1193 18.4676 35.5732 18.4958 35.052 18.6394C34.5309 18.783 34.0473 19.0384 33.635 19.388C32.9314 19.9852 32.4762 20.8238 32.3587 21.7392C31.6213 21.8767 30.9538 22.2705 30.4725 22.8655C30.1709 23.239 29.9577 23.6758 29.8486 24.1434C29.7395 24.6109 29.7374 25.097 29.8425 25.5655L30.9962 29.778V32.6292C30.9962 35.043 32.1463 37.188 33.9225 38.5605V41.0142C33.8101 40.974 33.6885 40.9674 33.5724 40.9951C33.4563 41.0229 33.3508 41.0838 33.2687 41.1705L31.29 43.3692L26.0075 46.5392C25.2445 46.9997 24.613 47.649 24.1738 48.4245C23.7346 49.2 23.5025 50.0755 23.5 50.9667V57.8705C23.5 58.0362 23.5658 58.1952 23.6831 58.3124C23.8003 58.4296 23.9592 58.4955 24.125 58.4955ZM39.3875 45.7492V47.0155H37.6125V45.7492C37.6125 45.7142 37.5975 45.683 37.5925 45.6492L38.5 44.7417L39.4087 45.6505C39.4025 45.683 39.3875 45.7142 39.3875 45.7492ZM44.49 43.8817L42.2313 46.7055L39.5675 44.0417L43.1138 42.353L44.49 43.8817ZM31.4437 23.6517C31.6243 23.4275 31.853 23.2467 32.1128 23.1227C32.3727 22.9987 32.6571 22.9347 32.945 22.9355C33.29 22.9355 33.57 22.5717 33.57 22.2267C33.5693 21.9021 33.6328 21.5805 33.7567 21.2805C33.8805 20.9805 34.0624 20.7078 34.2919 20.4782C34.5214 20.2486 34.7939 20.0666 35.0939 19.9426C35.3939 19.8186 35.7154 19.755 36.04 19.7555C36.1765 19.7556 36.3128 19.7668 36.4475 19.7892L43.895 21.0305C44.57 21.143 45.1575 21.513 45.5513 22.0717C45.945 22.6317 46.095 23.3105 45.9763 23.963L45.04 28.2942L43.86 26.828V25.4692C43.86 25.3034 43.7942 25.1445 43.6769 25.0273C43.5597 24.9101 43.4008 24.8442 43.235 24.8442H33.7575C33.5917 24.8442 33.4328 24.9101 33.3156 25.0273C33.1983 25.1445 33.1325 25.3034 33.1325 25.4692V26.8292L31.9037 28.3605L31.0563 25.2692C30.935 24.6967 31.0762 24.1067 31.4437 23.6517ZM32.2463 32.6292V29.9317L34.2463 27.4405C34.3351 27.3294 34.3836 27.1914 34.3837 27.0492V26.0942H42.6112V27.0492C42.6112 27.1915 42.6597 27.3295 42.7488 27.4405L44.7475 29.9217V32.628C44.7475 36.0742 41.9438 38.878 38.4975 38.878C35.0513 38.878 32.2463 36.0755 32.2463 32.6292ZM38.4963 40.1292C39.6912 40.1292 40.8175 39.8417 41.82 39.343V41.5842L38.5 43.1655L35.1725 41.5805V39.3417C36.1763 39.8405 37.3025 40.1292 38.4963 40.1292ZM33.8862 42.353L37.4325 44.0417L34.7688 46.7055L32.51 43.8817L33.8862 42.353Z" fill="white"/>
<path d="M30.3749 58.4946C30.5407 58.4946 30.6996 58.4288 30.8169 58.3116C30.9341 58.1944 30.9999 58.0354 30.9999 57.8696V54.9421C31.0012 53.6531 30.519 52.4105 29.6487 51.4596L28.7024 50.4234C28.647 50.3627 28.5802 50.3136 28.5058 50.2788C28.4314 50.2439 28.3509 50.2241 28.2688 50.2204C28.1868 50.2167 28.1048 50.2291 28.0275 50.2571C27.9503 50.2851 27.8793 50.328 27.8187 50.3834C27.758 50.4388 27.7089 50.5056 27.674 50.58C27.6392 50.6544 27.6193 50.7349 27.6156 50.817C27.6119 50.8991 27.6244 50.981 27.6524 51.0583C27.6803 51.1355 27.7233 51.2065 27.7787 51.2671L28.7249 52.3034C29.385 53.0236 29.7508 53.9652 29.7499 54.9421V57.8696C29.7499 58.0354 29.8158 58.1944 29.933 58.3116C30.0502 58.4288 30.2091 58.4946 30.3749 58.4946ZM48.2974 50.4234L47.3512 51.4609C46.4809 52.4113 45.9987 53.6535 45.9999 54.9421V57.8696C45.9999 58.0354 46.0658 58.1944 46.183 58.3116C46.3002 58.4288 46.4591 58.4946 46.6249 58.4946C46.7907 58.4946 46.9496 58.4288 47.0668 58.3116C47.1841 58.1944 47.2499 58.0354 47.2499 57.8696V54.9421C47.2499 53.9634 47.6137 53.0259 48.2737 52.3034L49.2199 51.2671C49.2753 51.2066 49.3182 51.1357 49.3462 51.0585C49.3742 50.9814 49.3868 50.8994 49.3831 50.8174C49.3795 50.7354 49.3597 50.6549 49.3249 50.5806C49.2902 50.5062 49.2411 50.4394 49.1805 50.384C49.12 50.3286 49.0491 50.2857 48.9719 50.2577C48.8947 50.2297 48.8128 50.2172 48.7308 50.2208C48.6488 50.2245 48.5683 50.2442 48.494 50.279C48.4196 50.3138 48.3528 50.3628 48.2974 50.4234Z" fill="white"/>
</g>
<rect x="75.5" y="0.5" width="10" height="10" rx="5" fill="#71DA1E"/>
<defs>
<clipPath id="clip0_2294_348">
<rect width="40" height="40" fill="white" transform="translate(18.5 18.5)"/>
</clipPath>
</defs>
</svg>
