<svg width="75" height="75" viewBox="0 0 75 75" fill="none" xmlns="http://www.w3.org/2000/svg">
<rect width="75" height="75" rx="37.5" fill="#2B2E35"/>
<g clip-path="url(#clip0_2248_694)">
<path d="M23.625 57.995C23.7908 57.995 23.9497 57.9291 24.0669 57.8119C24.1842 57.6947 24.25 57.5357 24.25 57.37V50.4662C24.25 49.1 24.9787 47.8125 26.1512 47.11L31.0438 44.1737L33.7288 47.53C33.7838 47.5986 33.8526 47.6548 33.9308 47.6951C34.009 47.7353 34.0947 47.7587 34.1825 47.7637L34.2175 47.765C34.3825 47.765 34.5425 47.7 34.66 47.5825L35.8625 46.38V47.1412C35.8625 47.307 35.9283 47.466 36.0456 47.5832C36.1628 47.7004 36.3217 47.7662 36.4875 47.7662H36.5462L35.5037 57.3037C35.4934 57.3861 35.4995 57.4696 35.5217 57.5496C35.544 57.6295 35.5819 57.7043 35.6334 57.7694C35.6848 57.8345 35.7487 57.8887 35.8213 57.9289C35.8939 57.9691 35.9738 57.9944 36.0563 58.0033C36.1388 58.0123 36.2223 58.0047 36.3018 57.9811C36.3814 57.9575 36.4554 57.9182 36.5197 57.8657C36.5839 57.8131 36.637 57.7483 36.6759 57.675C36.7148 57.6017 36.7387 57.5214 36.7463 57.4387L37.8038 47.7662H38.1962L39.2537 57.4387C39.2717 57.6037 39.3543 57.7547 39.4836 57.8587C39.6129 57.9627 39.7782 58.011 39.9431 57.9931C40.1081 57.9752 40.2591 57.8925 40.3631 57.7632C40.4671 57.6339 40.5154 57.4687 40.4975 57.3037L39.455 47.7662H39.5138C39.6795 47.7662 39.8385 47.7004 39.9557 47.5832C40.0729 47.466 40.1388 47.307 40.1388 47.1412V46.38L41.3413 47.5825C41.3994 47.6405 41.4684 47.6864 41.5443 47.7178C41.6203 47.7491 41.7016 47.7651 41.7838 47.765L41.8188 47.7637C41.9065 47.7587 41.9923 47.7353 42.0705 47.6951C42.1486 47.6548 42.2175 47.5986 42.2725 47.53L44.9575 44.1737L49.8513 47.11C50.429 47.4596 50.9071 47.952 51.2396 48.5398C51.5721 49.1275 51.7479 49.7909 51.75 50.4662V57.37C51.75 57.5357 51.8158 57.6947 51.9331 57.8119C52.0503 57.9291 52.2092 57.995 52.375 57.995C52.5408 57.995 52.6997 57.9291 52.8169 57.8119C52.9342 57.6947 53 57.5357 53 57.37V50.4662C53 48.6625 52.0387 46.9662 50.4925 46.0387L45.21 42.87L43.23 40.67C43.1476 40.5819 43.0409 40.5202 42.9235 40.4926C42.806 40.465 42.683 40.4728 42.57 40.515V38.06C43.4795 37.3618 44.2164 36.464 44.7237 35.4358C45.2311 34.4076 45.4954 33.2765 45.4963 32.13V29.29L46.7025 23.7075C46.7935 23.2139 46.7848 22.7071 46.6768 22.217C46.5688 21.7269 46.3638 21.2633 46.0737 20.8537C45.7862 20.4423 45.4191 20.0927 44.9943 19.8254C44.5694 19.5581 44.0953 19.3786 43.6 19.2975L36.1525 18.0562C35.6193 17.9671 35.0732 17.9954 34.552 18.1389C34.0309 18.2825 33.5473 18.5379 33.135 18.8875C32.4314 19.4848 31.9762 20.3233 31.8587 21.2387C31.1213 21.3762 30.4538 21.77 29.9725 22.365C29.6709 22.7385 29.4577 23.1754 29.3486 23.6429C29.2395 24.1104 29.2374 24.5965 29.3425 25.065L30.4962 29.2775V32.1287C30.4962 34.5425 31.6463 36.6875 33.4225 38.06V40.5137C33.3101 40.4735 33.1885 40.4669 33.0724 40.4946C32.9563 40.5224 32.8508 40.5833 32.7687 40.67L30.79 42.8687L25.5075 46.0387C24.7445 46.4992 24.113 47.1485 23.6738 47.924C23.2346 48.6995 23.0025 49.575 23 50.4662V57.37C23 57.5357 23.0658 57.6947 23.1831 57.8119C23.3003 57.9291 23.4592 57.995 23.625 57.995ZM38.8875 45.2487V46.515H37.1125V45.2487C37.1125 45.2137 37.0975 45.1825 37.0925 45.1487L38 44.2412L38.9087 45.15C38.9025 45.1825 38.8875 45.2137 38.8875 45.2487ZM43.99 43.3812L41.7313 46.205L39.0675 43.5412L42.6138 41.8525L43.99 43.3812ZM30.9437 23.1512C31.1243 22.927 31.353 22.7462 31.6128 22.6222C31.8727 22.4982 32.1571 22.4342 32.445 22.435C32.79 22.435 33.07 22.0712 33.07 21.7262C33.0693 21.4016 33.1328 21.0801 33.2567 20.78C33.3805 20.48 33.5624 20.2073 33.7919 19.9778C34.0214 19.7482 34.2939 19.5661 34.5939 19.4421C34.8939 19.3181 35.2154 19.2545 35.54 19.255C35.6765 19.2551 35.8128 19.2664 35.9475 19.2887L43.395 20.53C44.07 20.6425 44.6575 21.0125 45.0513 21.5712C45.445 22.1312 45.595 22.81 45.4763 23.4625L44.54 27.7937L43.36 26.3275V24.9687C43.36 24.803 43.2942 24.644 43.1769 24.5268C43.0597 24.4096 42.9008 24.3437 42.735 24.3437H33.2575C33.0917 24.3437 32.9328 24.4096 32.8156 24.5268C32.6983 24.644 32.6325 24.803 32.6325 24.9687V26.3287L31.4037 27.86L30.5563 24.7687C30.435 24.1962 30.5762 23.6062 30.9437 23.1512ZM31.7463 32.1287V29.4312L33.7463 26.94C33.8351 26.8289 33.8836 26.6909 33.8837 26.5487V25.5937H42.1112V26.5487C42.1112 26.691 42.1597 26.829 42.2488 26.94L44.2475 29.4212V32.1275C44.2475 35.5737 41.4438 38.3775 37.9975 38.3775C34.5513 38.3775 31.7463 35.575 31.7463 32.1287ZM37.9963 39.6287C39.1912 39.6287 40.3175 39.3412 41.32 38.8425V41.0837L38 42.665L34.6725 41.08V38.8412C35.6763 39.34 36.8025 39.6287 37.9963 39.6287ZM33.3862 41.8525L36.9325 43.5412L34.2688 46.205L32.01 43.3812L33.3862 41.8525Z" fill="white"/>
<path d="M29.8749 57.9951C30.0407 57.9951 30.1996 57.9293 30.3169 57.8121C30.4341 57.6949 30.4999 57.5359 30.4999 57.3701V54.4426C30.5012 53.1536 30.019 51.911 29.1487 50.9601L28.2024 49.9239C28.147 49.8632 28.0802 49.8141 28.0058 49.7792C27.9314 49.7444 27.8509 49.7246 27.7688 49.7209C27.6868 49.7171 27.6048 49.7296 27.5275 49.7576C27.4503 49.7856 27.3793 49.8285 27.3187 49.8839C27.258 49.9393 27.2089 50.0061 27.174 50.0805C27.1392 50.1549 27.1193 50.2354 27.1156 50.3175C27.1119 50.3995 27.1244 50.4815 27.1524 50.5588C27.1803 50.636 27.2233 50.707 27.2787 50.7676L28.2249 51.8039C28.885 52.524 29.2508 53.4657 29.2499 54.4426V57.3701C29.2499 57.5359 29.3158 57.6949 29.433 57.8121C29.5502 57.9293 29.7091 57.9951 29.8749 57.9951ZM47.7974 49.9239L46.8512 50.9614C45.9809 51.9118 45.4987 53.154 45.4999 54.4426V57.3701C45.4999 57.5359 45.5658 57.6949 45.683 57.8121C45.8002 57.9293 45.9591 57.9951 46.1249 57.9951C46.2907 57.9951 46.4496 57.9293 46.5668 57.8121C46.6841 57.6949 46.7499 57.5359 46.7499 57.3701V54.4426C46.7499 53.4639 47.1137 52.5264 47.7737 51.8039L48.7199 50.7676C48.7753 50.7071 48.8182 50.6362 48.8462 50.559C48.8742 50.4818 48.8868 50.3999 48.8831 50.3179C48.8795 50.2359 48.8597 50.1554 48.8249 50.0811C48.7902 50.0067 48.7411 49.9399 48.6805 49.8845C48.62 49.8291 48.5491 49.7862 48.4719 49.7582C48.3947 49.7302 48.3128 49.7176 48.2308 49.7213C48.1488 49.725 48.0683 49.7447 47.994 49.7795C47.9196 49.8142 47.8528 49.8633 47.7974 49.9239Z" fill="white"/>
</g>
<defs>
<clipPath id="clip0_2248_694">
<rect width="40" height="40" fill="white" transform="translate(18 18)"/>
</clipPath>
</defs>
</svg>
