<svg width="65" height="40" viewBox="0 0 65 40" fill="none" xmlns="http://www.w3.org/2000/svg">
<g filter="url(#filter0_b_2247_642)">
<rect width="40" height="40" rx="20" fill="white"/>
<path d="M19.9996 6.66699C27.3636 6.66699 33.3329 12.6363 33.3329 20.0003C33.3329 27.3643 27.3636 33.3336 19.9996 33.3336C17.6433 33.3374 15.3285 32.7139 13.2929 31.527L6.67161 33.3336L8.47428 26.7096C7.2864 24.6735 6.66234 22.3576 6.66628 20.0003C6.66628 12.6363 12.6356 6.66699 19.9996 6.66699ZM15.4556 13.7337L15.1889 13.7443C15.0163 13.7548 14.8476 13.8002 14.6929 13.8777C14.5483 13.9596 14.4163 14.062 14.3009 14.1817C14.1409 14.3323 14.0503 14.463 13.9529 14.5897C13.4598 15.2309 13.1942 16.0181 13.1983 16.827C13.2009 17.4803 13.3716 18.1163 13.6383 18.711C14.1836 19.9136 15.0809 21.187 16.2649 22.367C16.5503 22.651 16.8303 22.9363 17.1316 23.2016C18.6028 24.4969 20.3559 25.431 22.2516 25.9296L23.0089 26.0456C23.2556 26.059 23.5023 26.0403 23.7503 26.0283C24.1386 26.0083 24.5178 25.9031 24.8609 25.7203C25.0355 25.6304 25.2059 25.5325 25.3716 25.427C25.3716 25.427 25.4289 25.3896 25.5383 25.307C25.7183 25.1736 25.8289 25.079 25.9783 24.923C26.0889 24.8083 26.1849 24.6736 26.2583 24.5203C26.3623 24.303 26.4663 23.8883 26.5089 23.543C26.5409 23.279 26.5316 23.135 26.5276 23.0456C26.5223 22.903 26.4036 22.755 26.2743 22.6923L25.4983 22.3443C25.4983 22.3443 24.3383 21.839 23.6289 21.5163C23.5547 21.4839 23.4752 21.4654 23.3943 21.4616C23.303 21.4523 23.2109 21.4625 23.1239 21.4918C23.037 21.521 22.9573 21.5684 22.8903 21.631C22.8836 21.6283 22.7943 21.7043 21.8303 22.8723C21.7749 22.9467 21.6987 23.0029 21.6113 23.0337C21.524 23.0646 21.4294 23.0687 21.3396 23.0456C21.2527 23.0224 21.1676 22.993 21.0849 22.9576C20.9196 22.8883 20.8623 22.8616 20.7489 22.8136C19.9837 22.4797 19.2752 22.0285 18.6489 21.4763C18.4809 21.3296 18.3249 21.1696 18.1649 21.015C17.6404 20.5126 17.1832 19.9443 16.8049 19.3243L16.7263 19.1976C16.6698 19.1125 16.6241 19.0207 16.5903 18.9243C16.5396 18.7283 16.6716 18.571 16.6716 18.571C16.6716 18.571 16.9956 18.2163 17.1463 18.0243C17.2929 17.8377 17.4169 17.6563 17.4969 17.527C17.6543 17.2737 17.7036 17.0137 17.6209 16.8123C17.2476 15.9003 16.8609 14.9923 16.4636 14.091C16.3849 13.9123 16.1516 13.7843 15.9396 13.759C15.8676 13.751 15.7956 13.743 15.7236 13.7377C15.5445 13.7288 15.3651 13.7305 15.1863 13.743L15.4543 13.7323L15.4556 13.7337Z" fill="#60D669"/>
</g>
<g filter="url(#filter1_b_2247_642)">
<rect x="25" width="40" height="40" rx="20" fill="white"/>
<path fill-rule="evenodd" clip-rule="evenodd" d="M35.5725 10.5722C38.0704 8.07262 41.4642 6.66699 44.9996 6.66699C48.535 6.66699 51.9288 8.07262 54.4267 10.5722C56.9267 13.0718 58.3329 16.4655 58.3329 20.0003C58.3329 23.5351 56.9267 26.9289 54.4267 29.4284C51.9288 31.928 48.535 33.3337 44.9996 33.3337C41.4642 33.3337 38.0704 31.928 35.5725 29.4284C33.0725 26.9289 31.6663 23.5351 31.6663 20.0003C31.667 16.464 33.072 13.0728 35.5725 10.5722ZM45.4756 16.5119C44.1798 17.0513 41.5881 18.1677 37.7006 19.8611C37.0693 20.1121 36.7381 20.3577 36.7089 20.5977C36.6576 21.0032 37.1654 21.1631 37.8553 21.3803C37.9499 21.4101 38.048 21.441 38.1485 21.4738C38.8298 21.695 39.7464 21.954 40.2214 21.9642C40.6548 21.9736 41.136 21.7954 41.6673 21.43C45.3006 18.9786 47.1735 17.7394 47.2923 17.7127C47.3756 17.694 47.4902 17.6702 47.5673 17.7396C47.6464 17.8088 47.6381 17.94 47.6298 17.9752C47.5806 18.1894 45.5936 20.0368 44.5596 20.9981C44.2346 21.3003 44.0037 21.515 43.9568 21.5638C43.8522 21.6725 43.7455 21.7753 43.643 21.8742C43.0107 22.4836 42.5364 22.9409 43.6693 23.6873C44.2187 24.0491 44.6571 24.3478 45.0954 24.6463C45.5662 24.967 46.0368 25.2876 46.6443 25.6861C46.8006 25.7884 46.9498 25.8948 47.0951 25.9984C47.6473 26.392 48.1433 26.7456 48.7568 26.6892C49.1131 26.6565 49.4818 26.3215 49.6673 25.3223C50.1089 22.9609 50.9777 17.8446 51.1777 15.7363C51.1964 15.5517 51.1735 15.3152 51.1568 15.2115C51.1381 15.1076 51.1006 14.9597 50.9673 14.8503C50.8068 14.7206 50.561 14.6934 50.4506 14.6951C49.9485 14.7042 49.1798 14.9717 45.4756 16.5119Z" fill="url(#paint0_linear_2247_642)"/>
</g>
<defs>
<filter id="filter0_b_2247_642" x="-14.7026" y="-14.7026" width="69.4051" height="69.4051" filterUnits="userSpaceOnUse" color-interpolation-filters="sRGB">
<feFlood flood-opacity="0" result="BackgroundImageFix"/>
<feGaussianBlur in="BackgroundImageFix" stdDeviation="7.35129"/>
<feComposite in2="SourceAlpha" operator="in" result="effect1_backgroundBlur_2247_642"/>
<feBlend mode="normal" in="SourceGraphic" in2="effect1_backgroundBlur_2247_642" result="shape"/>
</filter>
<filter id="filter1_b_2247_642" x="10.2974" y="-14.7026" width="69.4051" height="69.4051" filterUnits="userSpaceOnUse" color-interpolation-filters="sRGB">
<feFlood flood-opacity="0" result="BackgroundImageFix"/>
<feGaussianBlur in="BackgroundImageFix" stdDeviation="7.35129"/>
<feComposite in2="SourceAlpha" operator="in" result="effect1_backgroundBlur_2247_642"/>
<feBlend mode="normal" in="SourceGraphic" in2="effect1_backgroundBlur_2247_642" result="shape"/>
</filter>
<linearGradient id="paint0_linear_2247_642" x1="1365" y1="6.66699" x2="1365" y2="2673.33" gradientUnits="userSpaceOnUse">
<stop stop-color="#2AABEE"/>
<stop offset="1" stop-color="#229ED9"/>
</linearGradient>
</defs>
</svg>
