<svg width="40" height="40" viewBox="0 0 40 40" fill="none" xmlns="http://www.w3.org/2000/svg">
<g filter="url(#filter0_b_2247_645)">
<rect width="40" height="40" rx="20" fill="white"/>
<path fill-rule="evenodd" clip-rule="evenodd" d="M10.5725 10.5722C13.0704 8.07262 16.4642 6.66699 19.9996 6.66699C23.535 6.66699 26.9288 8.07262 29.4267 10.5722C31.9267 13.0718 33.3329 16.4655 33.3329 20.0003C33.3329 23.5351 31.9267 26.9289 29.4267 29.4284C26.9288 31.928 23.535 33.3337 19.9996 33.3337C16.4642 33.3337 13.0704 31.928 10.5725 29.4284C8.07251 26.9289 6.66626 23.5351 6.66626 20.0003C6.66695 16.464 8.07202 13.0728 10.5725 10.5722ZM20.4756 16.5119C19.1798 17.0513 16.5881 18.1677 12.7006 19.8611C12.0693 20.1121 11.7381 20.3577 11.7089 20.5977C11.6576 21.0032 12.1654 21.1631 12.8553 21.3803C12.9499 21.4101 13.048 21.441 13.1485 21.4738C13.8298 21.695 14.7464 21.954 15.2214 21.9642C15.6548 21.9736 16.136 21.7954 16.6673 21.43C20.3006 18.9786 22.1735 17.7394 22.2923 17.7127C22.3756 17.694 22.4902 17.6702 22.5673 17.7396C22.6464 17.8088 22.6381 17.94 22.6298 17.9752C22.5806 18.1894 20.5936 20.0368 19.5596 20.9981C19.2346 21.3003 19.0037 21.515 18.9568 21.5638C18.8522 21.6725 18.7455 21.7753 18.643 21.8742C18.0107 22.4836 17.5364 22.9409 18.6693 23.6873C19.2187 24.0491 19.6571 24.3478 20.0954 24.6463C20.5662 24.967 21.0368 25.2876 21.6443 25.6861C21.8006 25.7884 21.9498 25.8948 22.0951 25.9984C22.6473 26.392 23.1433 26.7456 23.7568 26.6892C24.1131 26.6565 24.4818 26.3215 24.6673 25.3223C25.1089 22.9609 25.9777 17.8446 26.1777 15.7363C26.1964 15.5517 26.1735 15.3152 26.1568 15.2115C26.1381 15.1076 26.1006 14.9597 25.9673 14.8503C25.8068 14.7206 25.561 14.6934 25.4506 14.6951C24.9485 14.7042 24.1798 14.9717 20.4756 16.5119Z" fill="url(#paint0_linear_2247_645)"/>
</g>
<defs>
<filter id="filter0_b_2247_645" x="-14.7026" y="-14.7026" width="69.4051" height="69.4051" filterUnits="userSpaceOnUse" color-interpolation-filters="sRGB">
<feFlood flood-opacity="0" result="BackgroundImageFix"/>
<feGaussianBlur in="BackgroundImageFix" stdDeviation="7.35129"/>
<feComposite in2="SourceAlpha" operator="in" result="effect1_backgroundBlur_2247_645"/>
<feBlend mode="normal" in="SourceGraphic" in2="effect1_backgroundBlur_2247_645" result="shape"/>
</filter>
<linearGradient id="paint0_linear_2247_645" x1="1340" y1="6.66699" x2="1340" y2="2673.33" gradientUnits="userSpaceOnUse">
<stop stop-color="#2AABEE"/>
<stop offset="1" stop-color="#229ED9"/>
</linearGradient>
</defs>
</svg>
