<svg width="58" height="58" viewBox="0 0 58 58" fill="none" xmlns="http://www.w3.org/2000/svg">
<rect x="0.5" y="0.5" width="57" height="57" rx="28.5" fill="white"/>
<path d="M21.98 37.17L20.66 35.85L35.202 21.33L36.522 22.65L21.98 37.17ZM33.222 37.5C32.496 37.5 31.8323 37.324 31.231 36.972C30.637 36.6127 30.1603 36.136 29.801 35.542C29.4417 34.9407 29.262 34.2733 29.262 33.54C29.262 32.8213 29.4453 32.1613 29.812 31.56C30.1787 30.9587 30.6627 30.4783 31.264 30.119C31.8653 29.7597 32.518 29.58 33.222 29.58C33.948 29.58 34.6117 29.7597 35.213 30.119C35.8143 30.471 36.291 30.9477 36.643 31.549C37.0023 32.143 37.182 32.8067 37.182 33.54C37.182 34.2733 37.0023 34.9407 36.643 35.542C36.291 36.136 35.8143 36.6127 35.213 36.972C34.6117 37.324 33.948 37.5 33.222 37.5ZM33.222 35.773C33.6253 35.773 33.9957 35.6703 34.333 35.465C34.6777 35.2597 34.949 34.9883 35.147 34.651C35.3523 34.3137 35.455 33.9433 35.455 33.54C35.455 33.1367 35.3523 32.7663 35.147 32.429C34.949 32.0843 34.6777 31.813 34.333 31.615C33.9957 31.4097 33.6253 31.307 33.222 31.307C32.8187 31.307 32.4483 31.4097 32.111 31.615C31.7737 31.813 31.5023 32.0843 31.297 32.429C31.0917 32.7663 30.989 33.1367 30.989 33.54C30.989 33.9433 31.0917 34.3137 31.297 34.651C31.5023 34.9883 31.7737 35.2597 32.111 35.465C32.4483 35.6703 32.8187 35.773 33.222 35.773ZM23.96 28.92C23.234 28.92 22.5703 28.744 21.969 28.392C21.3677 28.0327 20.8873 27.556 20.528 26.962C20.176 26.3607 20 25.6933 20 24.96C20 24.2413 20.1833 23.5813 20.55 22.98C20.9167 22.3787 21.4007 21.8983 22.002 21.539C22.6033 21.1797 23.256 21 23.96 21C24.686 21 25.346 21.1797 25.94 21.539C26.5413 21.891 27.0217 22.3677 27.381 22.969C27.7403 23.563 27.92 24.2267 27.92 24.96C27.92 25.6933 27.7403 26.3607 27.381 26.962C27.0217 27.556 26.5413 28.0327 25.94 28.392C25.346 28.744 24.686 28.92 23.96 28.92ZM23.96 27.193C24.3633 27.193 24.7337 27.0903 25.071 26.885C25.4157 26.6797 25.687 26.4083 25.885 26.071C26.0903 25.7337 26.193 25.3633 26.193 24.96C26.193 24.5567 26.0903 24.1863 25.885 23.849C25.687 23.5043 25.4157 23.233 25.071 23.035C24.7337 22.8297 24.3633 22.727 23.96 22.727C23.5567 22.727 23.1863 22.8297 22.849 23.035C22.5117 23.233 22.2403 23.5043 22.035 23.849C21.8297 24.1863 21.727 24.5567 21.727 24.96C21.727 25.3633 21.8297 25.7337 22.035 26.071C22.2403 26.4083 22.5117 26.6797 22.849 26.885C23.1863 27.0903 23.5567 27.193 23.96 27.193Z" fill="#FF4002"/>
<rect x="0.5" y="0.5" width="57" height="57" rx="28.5" stroke="#D5D5D5"/>
</svg>
