<svg width="15" height="13" viewBox="0 0 15 13" fill="none" xmlns="http://www.w3.org/2000/svg">
<path d="M15 0.124606L14.6134 2.73992C13.823 2.67286 13.1959 2.80698 12.732 3.14228C12.268 3.46081 11.9502 3.92184 11.7784 4.52538C11.6237 5.11215 11.5979 5.78274 11.701 6.53716H15V13H8.63402V6.28568C8.63402 4.08949 9.16667 2.42977 10.232 1.30653C11.2972 0.166518 12.8866 -0.227456 15 0.124606ZM6.36598 0.124606L5.97938 2.73992C5.189 2.67286 4.56186 2.80698 4.09794 3.14228C3.63402 3.46081 3.31615 3.92184 3.14433 4.52538C2.98969 5.11215 2.96392 5.78274 3.06701 6.53716H6.36598V13H0V6.28568C0 4.08949 0.532646 2.42977 1.59794 1.30653C2.66323 0.166518 4.25258 -0.227456 6.36598 0.124606Z" fill="#FF4002"/>
</svg>
